<?xml version="1.0" encoding="utf-8"?>
<!-- Generator: Adobe Illustrator 19.2.0, SVG Export Plug-In . SVG Version: 6.00 Build 0)  -->
<svg version="1.1" xmlns="http://www.w3.org/2000/svg" xmlns:xlink="http://www.w3.org/1999/xlink" x="0px" y="0px"
	 viewBox="0 0 360 160" style="enable-background:new 0 0 360 160;" xml:space="preserve">
<style type="text/css">
	.st0{fill:#666666;}
	.st1{fill:#E6E6E6;}
	.st2{fill:#666666;stroke:#000000;stroke-miterlimit:10;}
	.st3{fill:#666666;stroke:#000000;stroke-width:0.5;stroke-miterlimit:10;}
	.st4{fill:#FF0000;stroke:#000000;stroke-width:0.5;stroke-miterlimit:10;}
</style>
<g id="Endzones">
	<rect class="st0" width="30" height="160"/>
	<rect x="330" y="0" class="st0" width="30" height="160"/>
</g>
<g id="Field">
	<rect x="30" class="st1" width="300" height="160"/>
</g>
<g id="Border">
	<line id="_x3C_LeftLine_x3E_" class="st2" x1="0" y1="160" x2="0" y2="0"/>
	<line id="_x3C_BottomLine_x3E_" class="st3" x1="0" y1="160" x2="360" y2="160"/>
	<line id="_x3C_RightLine_x3E_" class="st2" x1="360" y1="160" x2="360" y2="0"/>
	<line id="_x3C_TopLine_x3E_" class="st3" x1="0" y1="0" x2="360" y2="0"/>
</g>
<g id="FieldLines">
	<line id="_x3C_Line100_x3E_" class="st3" x1="330" y1="160" x2="330" y2="0"/>
	<line id="_x3C_Line95_x3E_" class="st3" x1="315" y1="160" x2="315" y2="0"/>
	<line id="_x3C_Line90_x3E_" class="st3" x1="300" y1="160" x2="300" y2="0"/>
	<line id="_x3C_Line85_x3E_" class="st3" x1="285" y1="160" x2="285" y2="0"/>
	<line id="_x3C_Line80_x3E_" class="st3" x1="270" y1="160" x2="270" y2="0"/>
	<line id="_x3C_Line75_x3E_" class="st3" x1="255" y1="160" x2="255" y2="0"/>
	<line id="_x3C_Line70_x3E_" class="st3" x1="240" y1="160" x2="240" y2="0"/>
	<line id="_x3C_Line65_x3E_" class="st3" x1="225" y1="160" x2="225" y2="0"/>
	<line id="_x3C_Line60_x3E_" class="st3" x1="210" y1="160" x2="210" y2="0"/>
	<line id="_x3C_Line55_x3E_" class="st3" x1="195" y1="160" x2="195" y2="0"/>
	<line id="_x3C_Line50_x3E_" class="st3" x1="180" y1="160" x2="180" y2="0"/>
	<line id="_x3C_Line45_x3E_" class="st3" x1="165" y1="160" x2="165" y2="0"/>
	<line id="_x3C_Line40_x3E_" class="st3" x1="150" y1="160" x2="150" y2="0"/>
	<line id="_x3C_Line35_x3E_" class="st3" x1="135" y1="160" x2="135" y2="0"/>
	<line id="_x3C_Line30_x3E_" class="st3" x1="120" y1="160" x2="120" y2="0"/>
	<line id="_x3C_Line25_x3E_" class="st3" x1="105" y1="160" x2="105" y2="0"/>
	<line id="_x3C_Line20_x3E_" class="st3" x1="90" y1="160" x2="90" y2="0"/>
	<line id="_x3C_Line15_x3E__1_" class="st3" x1="75" y1="160" x2="75" y2="0"/>
	<line id="_x3C_Line10_x3E_" class="st3" x1="60" y1="160" x2="60" y2="0"/>
	<line id="_x3C_Line5_x3E__1_" class="st3" x1="45" y1="160" x2="45" y2="0"/>
	<line id="_x3C_Line0_x3E__1_" class="st3" x1="30" y1="160" x2="30" y2="0"/>
</g>
<g id="OtherLines">
	<line id="_x3C_RightMidLine_x3E_" class="st4" x1="321" y1="81.5" x2="321" y2="78.5"/>
	<line id="_x3C_LeftMidLine_x3E_" class="st4" x1="39" y1="81.5" x2="39" y2="78.5"/>
</g>
<g id="CBMHashLines">
	<line id="_x3C_Line4_x3E__39_" class="st4" x1="57" y1="102" x2="57" y2="100"/>
	<line id="_x3C_Line3_x3E__39_" class="st4" x1="54" y1="102" x2="54" y2="100"/>
	<line id="_x3C_Line2_x3E__39_" class="st4" x1="51" y1="102" x2="51" y2="100"/>
	<line id="_x3C_Line1_x3E__39_" class="st4" x1="48" y1="102" x2="48" y2="100"/>
	<line id="_x3C_Line4_x3E__38_" class="st4" x1="42" y1="102" x2="42" y2="100"/>
	<line id="_x3C_Line3_x3E__38_" class="st4" x1="39" y1="102" x2="39" y2="100"/>
	<line id="_x3C_Line2_x3E__38_" class="st4" x1="36" y1="102" x2="36" y2="100"/>
	<line id="_x3C_Line1_x3E__38_" class="st4" x1="33" y1="102" x2="33" y2="100"/>
	<line id="_x3C_Line4_x3E__37_" class="st4" x1="87" y1="102" x2="87" y2="100"/>
	<line id="_x3C_Line3_x3E__37_" class="st4" x1="84" y1="102" x2="84" y2="100"/>
	<line id="_x3C_Line2_x3E__37_" class="st4" x1="81" y1="102" x2="81" y2="100"/>
	<line id="_x3C_Line1_x3E__37_" class="st4" x1="78" y1="102" x2="78" y2="100"/>
	<line id="_x3C_Line4_x3E__36_" class="st4" x1="72" y1="102" x2="72" y2="100"/>
	<line id="_x3C_Line3_x3E__36_" class="st4" x1="69" y1="102" x2="69" y2="100"/>
	<line id="_x3C_Line2_x3E__36_" class="st4" x1="66" y1="102" x2="66" y2="100"/>
	<line id="_x3C_Line1_x3E__36_" class="st4" x1="63" y1="102" x2="63" y2="100"/>
	<line id="_x3C_Line4_x3E__35_" class="st4" x1="117" y1="102" x2="117" y2="100"/>
	<line id="_x3C_Line3_x3E__35_" class="st4" x1="114" y1="102" x2="114" y2="100"/>
	<line id="_x3C_Line2_x3E__35_" class="st4" x1="111" y1="102" x2="111" y2="100"/>
	<line id="_x3C_Line1_x3E__35_" class="st4" x1="108" y1="102" x2="108" y2="100"/>
	<line id="_x3C_Line4_x3E__34_" class="st4" x1="102" y1="102" x2="102" y2="100"/>
	<line id="_x3C_Line3_x3E__34_" class="st4" x1="99" y1="102" x2="99" y2="100"/>
	<line id="_x3C_Line2_x3E__34_" class="st4" x1="96" y1="102" x2="96" y2="100"/>
	<line id="_x3C_Line1_x3E__34_" class="st4" x1="93" y1="102" x2="93" y2="100"/>
	<line id="_x3C_Line4_x3E__33_" class="st4" x1="147" y1="102" x2="147" y2="100"/>
	<line id="_x3C_Line3_x3E__33_" class="st4" x1="144" y1="102" x2="144" y2="100"/>
	<line id="_x3C_Line2_x3E__33_" class="st4" x1="141" y1="102" x2="141" y2="100"/>
	<line id="_x3C_Line1_x3E__33_" class="st4" x1="138" y1="102" x2="138" y2="100"/>
	<line id="_x3C_Line4_x3E__32_" class="st4" x1="132" y1="102" x2="132" y2="100"/>
	<line id="_x3C_Line3_x3E__32_" class="st4" x1="129" y1="102" x2="129" y2="100"/>
	<line id="_x3C_Line2_x3E__32_" class="st4" x1="126" y1="102" x2="126" y2="100"/>
	<line id="_x3C_Line1_x3E__32_" class="st4" x1="123" y1="102" x2="123" y2="100"/>
	<line id="_x3C_Line4_x3E__31_" class="st4" x1="177" y1="102" x2="177" y2="100"/>
	<line id="_x3C_Line3_x3E__31_" class="st4" x1="174" y1="102" x2="174" y2="100"/>
	<line id="_x3C_Line2_x3E__31_" class="st4" x1="171" y1="102" x2="171" y2="100"/>
	<line id="_x3C_Line1_x3E__31_" class="st4" x1="168" y1="102" x2="168" y2="100"/>
	<line id="_x3C_Line4_x3E__30_" class="st4" x1="162" y1="102" x2="162" y2="100"/>
	<line id="_x3C_Line3_x3E__30_" class="st4" x1="159" y1="102" x2="159" y2="100"/>
	<line id="_x3C_Line2_x3E__30_" class="st4" x1="156" y1="102" x2="156" y2="100"/>
	<line id="_x3C_Line1_x3E__30_" class="st4" x1="153" y1="102" x2="153" y2="100"/>
	<line id="_x3C_Line4_x3E__29_" class="st4" x1="207" y1="102" x2="207" y2="100"/>
	<line id="_x3C_Line3_x3E__29_" class="st4" x1="204" y1="102" x2="204" y2="100"/>
	<line id="_x3C_Line2_x3E__29_" class="st4" x1="201" y1="102" x2="201" y2="100"/>
	<line id="_x3C_Line1_x3E__29_" class="st4" x1="198" y1="102" x2="198" y2="100"/>
	<line id="_x3C_Line4_x3E__28_" class="st4" x1="192" y1="102" x2="192" y2="100"/>
	<line id="_x3C_Line3_x3E__28_" class="st4" x1="189" y1="102" x2="189" y2="100"/>
	<line id="_x3C_Line2_x3E__28_" class="st4" x1="186" y1="102" x2="186" y2="100"/>
	<line id="_x3C_Line1_x3E__28_" class="st4" x1="183" y1="102" x2="183" y2="100"/>
	<line id="_x3C_Line4_x3E__27_" class="st4" x1="237" y1="102" x2="237" y2="100"/>
	<line id="_x3C_Line3_x3E__27_" class="st4" x1="234" y1="102" x2="234" y2="100"/>
	<line id="_x3C_Line2_x3E__27_" class="st4" x1="231" y1="102" x2="231" y2="100"/>
	<line id="_x3C_Line1_x3E__27_" class="st4" x1="228" y1="102" x2="228" y2="100"/>
	<line id="_x3C_Line4_x3E__26_" class="st4" x1="222" y1="102" x2="222" y2="100"/>
	<line id="_x3C_Line3_x3E__26_" class="st4" x1="219" y1="102" x2="219" y2="100"/>
	<line id="_x3C_Line2_x3E__26_" class="st4" x1="216" y1="102" x2="216" y2="100"/>
	<line id="_x3C_Line1_x3E__26_" class="st4" x1="213" y1="102" x2="213" y2="100"/>
	<line id="_x3C_Line4_x3E__25_" class="st4" x1="267" y1="102" x2="267" y2="100"/>
	<line id="_x3C_Line3_x3E__25_" class="st4" x1="264" y1="102" x2="264" y2="100"/>
	<line id="_x3C_Line2_x3E__25_" class="st4" x1="261" y1="102" x2="261" y2="100"/>
	<line id="_x3C_Line1_x3E__25_" class="st4" x1="258" y1="102" x2="258" y2="100"/>
	<line id="_x3C_Line4_x3E__24_" class="st4" x1="252" y1="102" x2="252" y2="100"/>
	<line id="_x3C_Line3_x3E__24_" class="st4" x1="249" y1="102" x2="249" y2="100"/>
	<line id="_x3C_Line2_x3E__24_" class="st4" x1="246" y1="102" x2="246" y2="100"/>
	<line id="_x3C_Line1_x3E__24_" class="st4" x1="243" y1="102" x2="243" y2="100"/>
	<line id="_x3C_Line4_x3E__23_" class="st4" x1="297" y1="102" x2="297" y2="100"/>
	<line id="_x3C_Line3_x3E__23_" class="st4" x1="294" y1="102" x2="294" y2="100"/>
	<line id="_x3C_Line2_x3E__23_" class="st4" x1="291" y1="102" x2="291" y2="100"/>
	<line id="_x3C_Line1_x3E__23_" class="st4" x1="288" y1="102" x2="288" y2="100"/>
	<line id="_x3C_Line4_x3E__22_" class="st4" x1="282" y1="102" x2="282" y2="100"/>
	<line id="_x3C_Line3_x3E__22_" class="st4" x1="279" y1="102" x2="279" y2="100"/>
	<line id="_x3C_Line2_x3E__22_" class="st4" x1="276" y1="102" x2="276" y2="100"/>
	<line id="_x3C_Line1_x3E__22_" class="st4" x1="273" y1="102" x2="273" y2="100"/>
	<line id="_x3C_Line4_x3E__21_" class="st4" x1="327" y1="102" x2="327" y2="100"/>
	<line id="_x3C_Line3_x3E__21_" class="st4" x1="324" y1="102" x2="324" y2="100"/>
	<line id="_x3C_Line2_x3E__21_" class="st4" x1="321" y1="102" x2="321" y2="100"/>
	<line id="_x3C_Line1_x3E__21_" class="st4" x1="318" y1="102" x2="318" y2="100"/>
	<line id="_x3C_Line4_x3E__20_" class="st4" x1="312" y1="102" x2="312" y2="100"/>
	<line id="_x3C_Line3_x3E__20_" class="st4" x1="309" y1="102" x2="309" y2="100"/>
	<line id="_x3C_Line2_x3E__20_" class="st4" x1="306" y1="102" x2="306" y2="100"/>
	<line id="_x3C_Line1_x3E__20_" class="st4" x1="303" y1="102" x2="303" y2="100"/>
	<line class="st4" x1="268.5" y1="100.2" x2="271.5" y2="100.2"/>
	<line class="st4" x1="283.5" y1="100.2" x2="286.5" y2="100.2"/>
	<line class="st4" x1="313.5" y1="100.2" x2="316.5" y2="100.2"/>
	<line class="st4" x1="298.5" y1="100.2" x2="301.5" y2="100.2"/>
	<line class="st4" x1="43.5" y1="100.2" x2="46.5" y2="100.2"/>
	<line class="st4" x1="58.5" y1="100.2" x2="61.5" y2="100.2"/>
	<line class="st4" x1="73.5" y1="100.2" x2="76.5" y2="100.2"/>
	<line class="st4" x1="88.5" y1="100.2" x2="91.5" y2="100.2"/>
	<line class="st4" x1="103.5" y1="100.2" x2="106.5" y2="100.2"/>
	<line class="st4" x1="118.5" y1="100.2" x2="121.5" y2="100.2"/>
	<line class="st4" x1="133.5" y1="100.2" x2="136.5" y2="100.2"/>
	<line class="st4" x1="148.5" y1="100.2" x2="151.5" y2="100.2"/>
	<line class="st4" x1="163.5" y1="100.2" x2="166.5" y2="100.2"/>
	<line class="st4" x1="178.5" y1="100.2" x2="181.5" y2="100.2"/>
	<line class="st4" x1="193.5" y1="100.2" x2="196.5" y2="100.2"/>
	<line class="st4" x1="208.5" y1="100.2" x2="211.5" y2="100.2"/>
	<line class="st4" x1="223.5" y1="100.2" x2="226.5" y2="100.2"/>
	<line class="st4" x1="238.5" y1="100.2" x2="241.5" y2="100.2"/>
	<line class="st4" x1="253.5" y1="100.2" x2="256.5" y2="100.2"/>
</g>
<g id="CTMHashLines">
	<line id="_x3C_Line4_x3E_" class="st4" x1="57" y1="60" x2="57" y2="58"/>
	<line id="_x3C_Line3_x3E_" class="st4" x1="54" y1="60" x2="54" y2="58"/>
	<line id="_x3C_Line2_x3E_" class="st4" x1="51" y1="60" x2="51" y2="58"/>
	<line id="_x3C_Line1_x3E_" class="st4" x1="48" y1="60" x2="48" y2="58"/>
	<line id="_x3C_Line4_x3E__1_" class="st4" x1="42" y1="60" x2="42" y2="58"/>
	<line id="_x3C_Line3_x3E__1_" class="st4" x1="39" y1="60" x2="39" y2="58"/>
	<line id="_x3C_Line2_x3E__1_" class="st4" x1="36" y1="60" x2="36" y2="58"/>
	<line id="_x3C_Line1_x3E__1_" class="st4" x1="33" y1="60" x2="33" y2="58"/>
	<line id="_x3C_Line4_x3E__3_" class="st4" x1="87" y1="60" x2="87" y2="58"/>
	<line id="_x3C_Line3_x3E__3_" class="st4" x1="84" y1="60" x2="84" y2="58"/>
	<line id="_x3C_Line2_x3E__3_" class="st4" x1="81" y1="60" x2="81" y2="58"/>
	<line id="_x3C_Line1_x3E__3_" class="st4" x1="78" y1="60" x2="78" y2="58"/>
	<line id="_x3C_Line4_x3E__2_" class="st4" x1="72" y1="60" x2="72" y2="58"/>
	<line id="_x3C_Line3_x3E__2_" class="st4" x1="69" y1="60" x2="69" y2="58"/>
	<line id="_x3C_Line2_x3E__2_" class="st4" x1="66" y1="60" x2="66" y2="58"/>
	<line id="_x3C_Line1_x3E__2_" class="st4" x1="63" y1="60" x2="63" y2="58"/>
	<line id="_x3C_Line4_x3E__7_" class="st4" x1="117" y1="60" x2="117" y2="58"/>
	<line id="_x3C_Line3_x3E__7_" class="st4" x1="114" y1="60" x2="114" y2="58"/>
	<line id="_x3C_Line2_x3E__7_" class="st4" x1="111" y1="60" x2="111" y2="58"/>
	<line id="_x3C_Line1_x3E__7_" class="st4" x1="108" y1="60" x2="108" y2="58"/>
	<line id="_x3C_Line4_x3E__6_" class="st4" x1="102" y1="60" x2="102" y2="58"/>
	<line id="_x3C_Line3_x3E__6_" class="st4" x1="99" y1="60" x2="99" y2="58"/>
	<line id="_x3C_Line2_x3E__6_" class="st4" x1="96" y1="60" x2="96" y2="58"/>
	<line id="_x3C_Line1_x3E__6_" class="st4" x1="93" y1="60" x2="93" y2="58"/>
	<line id="_x3C_Line4_x3E__5_" class="st4" x1="147" y1="60" x2="147" y2="58"/>
	<line id="_x3C_Line3_x3E__5_" class="st4" x1="144" y1="60" x2="144" y2="58"/>
	<line id="_x3C_Line2_x3E__5_" class="st4" x1="141" y1="60" x2="141" y2="58"/>
	<line id="_x3C_Line1_x3E__5_" class="st4" x1="138" y1="60" x2="138" y2="58"/>
	<line id="_x3C_Line4_x3E__4_" class="st4" x1="132" y1="60" x2="132" y2="58"/>
	<line id="_x3C_Line3_x3E__4_" class="st4" x1="129" y1="60" x2="129" y2="58"/>
	<line id="_x3C_Line2_x3E__4_" class="st4" x1="126" y1="60" x2="126" y2="58"/>
	<line id="_x3C_Line1_x3E__4_" class="st4" x1="123" y1="60" x2="123" y2="58"/>
	<line id="_x3C_Line4_x3E__15_" class="st4" x1="177" y1="60" x2="177" y2="58"/>
	<line id="_x3C_Line3_x3E__15_" class="st4" x1="174" y1="60" x2="174" y2="58"/>
	<line id="_x3C_Line2_x3E__15_" class="st4" x1="171" y1="60" x2="171" y2="58"/>
	<line id="_x3C_Line1_x3E__15_" class="st4" x1="168" y1="60" x2="168" y2="58"/>
	<line id="_x3C_Line4_x3E__14_" class="st4" x1="162" y1="60" x2="162" y2="58"/>
	<line id="_x3C_Line3_x3E__14_" class="st4" x1="159" y1="60" x2="159" y2="58"/>
	<line id="_x3C_Line2_x3E__14_" class="st4" x1="156" y1="60" x2="156" y2="58"/>
	<line id="_x3C_Line1_x3E__14_" class="st4" x1="153" y1="60" x2="153" y2="58"/>
	<line id="_x3C_Line4_x3E__13_" class="st4" x1="207" y1="60" x2="207" y2="58"/>
	<line id="_x3C_Line3_x3E__13_" class="st4" x1="204" y1="60" x2="204" y2="58"/>
	<line id="_x3C_Line2_x3E__13_" class="st4" x1="201" y1="60" x2="201" y2="58"/>
	<line id="_x3C_Line1_x3E__13_" class="st4" x1="198" y1="60" x2="198" y2="58"/>
	<line id="_x3C_Line4_x3E__12_" class="st4" x1="192" y1="60" x2="192" y2="58"/>
	<line id="_x3C_Line3_x3E__12_" class="st4" x1="189" y1="60" x2="189" y2="58"/>
	<line id="_x3C_Line2_x3E__12_" class="st4" x1="186" y1="60" x2="186" y2="58"/>
	<line id="_x3C_Line1_x3E__12_" class="st4" x1="183" y1="60" x2="183" y2="58"/>
	<line id="_x3C_Line4_x3E__11_" class="st4" x1="237" y1="60" x2="237" y2="58"/>
	<line id="_x3C_Line3_x3E__11_" class="st4" x1="234" y1="60" x2="234" y2="58"/>
	<line id="_x3C_Line2_x3E__11_" class="st4" x1="231" y1="60" x2="231" y2="58"/>
	<line id="_x3C_Line1_x3E__11_" class="st4" x1="228" y1="60" x2="228" y2="58"/>
	<line id="_x3C_Line4_x3E__10_" class="st4" x1="222" y1="60" x2="222" y2="58"/>
	<line id="_x3C_Line3_x3E__10_" class="st4" x1="219" y1="60" x2="219" y2="58"/>
	<line id="_x3C_Line2_x3E__10_" class="st4" x1="216" y1="60" x2="216" y2="58"/>
	<line id="_x3C_Line1_x3E__10_" class="st4" x1="213" y1="60" x2="213" y2="58"/>
	<line id="_x3C_Line4_x3E__9_" class="st4" x1="267" y1="60" x2="267" y2="58"/>
	<line id="_x3C_Line3_x3E__9_" class="st4" x1="264" y1="60" x2="264" y2="58"/>
	<line id="_x3C_Line2_x3E__9_" class="st4" x1="261" y1="60" x2="261" y2="58"/>
	<line id="_x3C_Line1_x3E__9_" class="st4" x1="258" y1="60" x2="258" y2="58"/>
	<line id="_x3C_Line4_x3E__8_" class="st4" x1="252" y1="60" x2="252" y2="58"/>
	<line id="_x3C_Line3_x3E__8_" class="st4" x1="249" y1="60" x2="249" y2="58"/>
	<line id="_x3C_Line2_x3E__8_" class="st4" x1="246" y1="60" x2="246" y2="58"/>
	<line id="_x3C_Line1_x3E__8_" class="st4" x1="243" y1="60" x2="243" y2="58"/>
	<line id="_x3C_Line4_x3E__19_" class="st4" x1="297" y1="60" x2="297" y2="58"/>
	<line id="_x3C_Line3_x3E__19_" class="st4" x1="294" y1="60" x2="294" y2="58"/>
	<line id="_x3C_Line2_x3E__19_" class="st4" x1="291" y1="60" x2="291" y2="58"/>
	<line id="_x3C_Line1_x3E__19_" class="st4" x1="288" y1="60" x2="288" y2="58"/>
	<line id="_x3C_Line4_x3E__18_" class="st4" x1="282" y1="60" x2="282" y2="58"/>
	<line id="_x3C_Line3_x3E__18_" class="st4" x1="279" y1="60" x2="279" y2="58"/>
	<line id="_x3C_Line2_x3E__18_" class="st4" x1="276" y1="60" x2="276" y2="58"/>
	<line id="_x3C_Line1_x3E__18_" class="st4" x1="273" y1="60" x2="273" y2="58"/>
	<line id="_x3C_Line4_x3E__17_" class="st4" x1="327" y1="60" x2="327" y2="58"/>
	<line id="_x3C_Line3_x3E__17_" class="st4" x1="324" y1="60" x2="324" y2="58"/>
	<line id="_x3C_Line2_x3E__17_" class="st4" x1="321" y1="60" x2="321" y2="58"/>
	<line id="_x3C_Line1_x3E__17_" class="st4" x1="318" y1="60" x2="318" y2="58"/>
	<line id="_x3C_Line4_x3E__16_" class="st4" x1="312" y1="60" x2="312" y2="58"/>
	<line id="_x3C_Line3_x3E__16_" class="st4" x1="309" y1="60" x2="309" y2="58"/>
	<line id="_x3C_Line2_x3E__16_" class="st4" x1="306" y1="60" x2="306" y2="58"/>
	<line id="_x3C_Line1_x3E__16_" class="st4" x1="303" y1="60" x2="303" y2="58"/>
	<line class="st4" x1="43.5" y1="59.8" x2="46.5" y2="59.8"/>
	<line class="st4" x1="58.5" y1="59.8" x2="61.5" y2="59.8"/>
	<line class="st4" x1="73.5" y1="59.8" x2="76.5" y2="59.8"/>
	<line class="st4" x1="88.5" y1="59.8" x2="91.5" y2="59.8"/>
	<line class="st4" x1="103.5" y1="59.8" x2="106.5" y2="59.8"/>
	<line class="st4" x1="118.5" y1="59.8" x2="121.5" y2="59.8"/>
	<line class="st4" x1="133.5" y1="59.8" x2="136.5" y2="59.8"/>
	<line class="st4" x1="148.5" y1="59.8" x2="151.5" y2="59.8"/>
	<line class="st4" x1="163.5" y1="59.8" x2="166.5" y2="59.8"/>
	<line class="st4" x1="178.5" y1="59.8" x2="181.5" y2="59.8"/>
	<line class="st4" x1="193.5" y1="59.8" x2="196.5" y2="59.8"/>
	<line class="st4" x1="208.5" y1="59.8" x2="211.5" y2="59.8"/>
	<line class="st4" x1="223.5" y1="59.8" x2="226.5" y2="59.8"/>
	<line class="st4" x1="238.5" y1="59.8" x2="241.5" y2="59.8"/>
	<line class="st4" x1="253.5" y1="59.8" x2="256.5" y2="59.8"/>
	<line class="st4" x1="268.5" y1="59.8" x2="271.5" y2="59.8"/>
	<line class="st4" x1="283.5" y1="59.8" x2="286.5" y2="59.8"/>
	<line class="st4" x1="298.5" y1="59.8" x2="301.5" y2="59.8"/>
	<line class="st4" x1="313.5" y1="59.8" x2="316.5" y2="59.8"/>
</g>
<g id="BHashLines">
	<line id="_x3C_Line4_x3E__79_" class="st4" x1="57" y1="159" x2="57" y2="157"/>
	<line id="_x3C_Line3_x3E__79_" class="st4" x1="54" y1="159" x2="54" y2="157"/>
	<line id="_x3C_Line2_x3E__79_" class="st4" x1="51" y1="159" x2="51" y2="157"/>
	<line id="_x3C_Line1_x3E__79_" class="st4" x1="48" y1="159" x2="48" y2="157"/>
	<line id="_x3C_Line4_x3E__78_" class="st4" x1="42" y1="159" x2="42" y2="157"/>
	<line id="_x3C_Line3_x3E__78_" class="st4" x1="39" y1="159" x2="39" y2="157"/>
	<line id="_x3C_Line2_x3E__78_" class="st4" x1="36" y1="159" x2="36" y2="157"/>
	<line id="_x3C_Line1_x3E__78_" class="st4" x1="33" y1="159" x2="33" y2="157"/>
	<line id="_x3C_Line4_x3E__77_" class="st4" x1="87" y1="159" x2="87" y2="157"/>
	<line id="_x3C_Line3_x3E__77_" class="st4" x1="84" y1="159" x2="84" y2="157"/>
	<line id="_x3C_Line2_x3E__77_" class="st4" x1="81" y1="159" x2="81" y2="157"/>
	<line id="_x3C_Line1_x3E__77_" class="st4" x1="78" y1="159" x2="78" y2="157"/>
	<line id="_x3C_Line4_x3E__76_" class="st4" x1="72" y1="159" x2="72" y2="157"/>
	<line id="_x3C_Line3_x3E__76_" class="st4" x1="69" y1="159" x2="69" y2="157"/>
	<line id="_x3C_Line2_x3E__76_" class="st4" x1="66" y1="159" x2="66" y2="157"/>
	<line id="_x3C_Line1_x3E__76_" class="st4" x1="63" y1="159" x2="63" y2="157"/>
	<line id="_x3C_Line4_x3E__75_" class="st4" x1="117" y1="159" x2="117" y2="157"/>
	<line id="_x3C_Line3_x3E__75_" class="st4" x1="114" y1="159" x2="114" y2="157"/>
	<line id="_x3C_Line2_x3E__75_" class="st4" x1="111" y1="159" x2="111" y2="157"/>
	<line id="_x3C_Line1_x3E__75_" class="st4" x1="108" y1="159" x2="108" y2="157"/>
	<line id="_x3C_Line4_x3E__74_" class="st4" x1="102" y1="159" x2="102" y2="157"/>
	<line id="_x3C_Line3_x3E__74_" class="st4" x1="99" y1="159" x2="99" y2="157"/>
	<line id="_x3C_Line2_x3E__74_" class="st4" x1="96" y1="159" x2="96" y2="157"/>
	<line id="_x3C_Line1_x3E__74_" class="st4" x1="93" y1="159" x2="93" y2="157"/>
	<line id="_x3C_Line4_x3E__73_" class="st4" x1="147" y1="159" x2="147" y2="157"/>
	<line id="_x3C_Line3_x3E__73_" class="st4" x1="144" y1="159" x2="144" y2="157"/>
	<line id="_x3C_Line2_x3E__73_" class="st4" x1="141" y1="159" x2="141" y2="157"/>
	<line id="_x3C_Line1_x3E__73_" class="st4" x1="138" y1="159" x2="138" y2="157"/>
	<line id="_x3C_Line4_x3E__72_" class="st4" x1="132" y1="159" x2="132" y2="157"/>
	<line id="_x3C_Line3_x3E__72_" class="st4" x1="129" y1="159" x2="129" y2="157"/>
	<line id="_x3C_Line2_x3E__72_" class="st4" x1="126" y1="159" x2="126" y2="157"/>
	<line id="_x3C_Line1_x3E__72_" class="st4" x1="123" y1="159" x2="123" y2="157"/>
	<line id="_x3C_Line4_x3E__71_" class="st4" x1="177" y1="159" x2="177" y2="157"/>
	<line id="_x3C_Line3_x3E__71_" class="st4" x1="174" y1="159" x2="174" y2="157"/>
	<line id="_x3C_Line2_x3E__71_" class="st4" x1="171" y1="159" x2="171" y2="157"/>
	<line id="_x3C_Line1_x3E__71_" class="st4" x1="168" y1="159" x2="168" y2="157"/>
	<line id="_x3C_Line4_x3E__70_" class="st4" x1="162" y1="159" x2="162" y2="157"/>
	<line id="_x3C_Line3_x3E__70_" class="st4" x1="159" y1="159" x2="159" y2="157"/>
	<line id="_x3C_Line2_x3E__70_" class="st4" x1="156" y1="159" x2="156" y2="157"/>
	<line id="_x3C_Line1_x3E__70_" class="st4" x1="153" y1="159" x2="153" y2="157"/>
	<line id="_x3C_Line4_x3E__69_" class="st4" x1="207" y1="159" x2="207" y2="157"/>
	<line id="_x3C_Line3_x3E__69_" class="st4" x1="204" y1="159" x2="204" y2="157"/>
	<line id="_x3C_Line2_x3E__69_" class="st4" x1="201" y1="159" x2="201" y2="157"/>
	<line id="_x3C_Line1_x3E__69_" class="st4" x1="198" y1="159" x2="198" y2="157"/>
	<line id="_x3C_Line4_x3E__68_" class="st4" x1="192" y1="159" x2="192" y2="157"/>
	<line id="_x3C_Line3_x3E__68_" class="st4" x1="189" y1="159" x2="189" y2="157"/>
	<line id="_x3C_Line2_x3E__68_" class="st4" x1="186" y1="159" x2="186" y2="157"/>
	<line id="_x3C_Line1_x3E__68_" class="st4" x1="183" y1="159" x2="183" y2="157"/>
	<line id="_x3C_Line4_x3E__67_" class="st4" x1="237" y1="159" x2="237" y2="157"/>
	<line id="_x3C_Line3_x3E__67_" class="st4" x1="234" y1="159" x2="234" y2="157"/>
	<line id="_x3C_Line2_x3E__67_" class="st4" x1="231" y1="159" x2="231" y2="157"/>
	<line id="_x3C_Line1_x3E__67_" class="st4" x1="228" y1="159" x2="228" y2="157"/>
	<line id="_x3C_Line4_x3E__66_" class="st4" x1="222" y1="159" x2="222" y2="157"/>
	<line id="_x3C_Line3_x3E__66_" class="st4" x1="219" y1="159" x2="219" y2="157"/>
	<line id="_x3C_Line2_x3E__66_" class="st4" x1="216" y1="159" x2="216" y2="157"/>
	<line id="_x3C_Line1_x3E__66_" class="st4" x1="213" y1="159" x2="213" y2="157"/>
	<line id="_x3C_Line4_x3E__65_" class="st4" x1="267" y1="159" x2="267" y2="157"/>
	<line id="_x3C_Line3_x3E__65_" class="st4" x1="264" y1="159" x2="264" y2="157"/>
	<line id="_x3C_Line2_x3E__65_" class="st4" x1="261" y1="159" x2="261" y2="157"/>
	<line id="_x3C_Line1_x3E__65_" class="st4" x1="258" y1="159" x2="258" y2="157"/>
	<line id="_x3C_Line4_x3E__64_" class="st4" x1="252" y1="159" x2="252" y2="157"/>
	<line id="_x3C_Line3_x3E__64_" class="st4" x1="249" y1="159" x2="249" y2="157"/>
	<line id="_x3C_Line2_x3E__64_" class="st4" x1="246" y1="159" x2="246" y2="157"/>
	<line id="_x3C_Line1_x3E__64_" class="st4" x1="243" y1="159" x2="243" y2="157"/>
	<line id="_x3C_Line4_x3E__63_" class="st4" x1="297" y1="159" x2="297" y2="157"/>
	<line id="_x3C_Line3_x3E__63_" class="st4" x1="294" y1="159" x2="294" y2="157"/>
	<line id="_x3C_Line2_x3E__63_" class="st4" x1="291" y1="159" x2="291" y2="157"/>
	<line id="_x3C_Line1_x3E__63_" class="st4" x1="288" y1="159" x2="288" y2="157"/>
	<line id="_x3C_Line4_x3E__62_" class="st4" x1="282" y1="159" x2="282" y2="157"/>
	<line id="_x3C_Line3_x3E__62_" class="st4" x1="279" y1="159" x2="279" y2="157"/>
	<line id="_x3C_Line2_x3E__62_" class="st4" x1="276" y1="159" x2="276" y2="157"/>
	<line id="_x3C_Line1_x3E__62_" class="st4" x1="273" y1="159" x2="273" y2="157"/>
	<line id="_x3C_Line4_x3E__61_" class="st4" x1="327" y1="159" x2="327" y2="157"/>
	<line id="_x3C_Line3_x3E__61_" class="st4" x1="324" y1="159" x2="324" y2="157"/>
	<line id="_x3C_Line2_x3E__61_" class="st4" x1="321" y1="159" x2="321" y2="157"/>
	<line id="_x3C_Line1_x3E__61_" class="st4" x1="318" y1="159" x2="318" y2="157"/>
	<line id="_x3C_Line4_x3E__60_" class="st4" x1="312" y1="159" x2="312" y2="157"/>
	<line id="_x3C_Line3_x3E__60_" class="st4" x1="309" y1="159" x2="309" y2="157"/>
	<line id="_x3C_Line2_x3E__60_" class="st4" x1="306" y1="159" x2="306" y2="157"/>
	<line id="_x3C_Line1_x3E__60_" class="st4" x1="303" y1="159" x2="303" y2="157"/>
</g>
<g id="THashLines">
	<line id="_x3C_Line4_x3E__59_" class="st4" x1="57" y1="3" x2="57" y2="1"/>
	<line id="_x3C_Line3_x3E__59_" class="st4" x1="54" y1="3" x2="54" y2="1"/>
	<line id="_x3C_Line2_x3E__59_" class="st4" x1="51" y1="3" x2="51" y2="1"/>
	<line id="_x3C_Line1_x3E__59_" class="st4" x1="48" y1="3" x2="48" y2="1"/>
	<line id="_x3C_Line4_x3E__58_" class="st4" x1="42" y1="3" x2="42" y2="1"/>
	<line id="_x3C_Line3_x3E__58_" class="st4" x1="39" y1="3" x2="39" y2="1"/>
	<line id="_x3C_Line2_x3E__58_" class="st4" x1="36" y1="3" x2="36" y2="1"/>
	<line id="_x3C_Line1_x3E__58_" class="st4" x1="33" y1="3" x2="33" y2="1"/>
	<line id="_x3C_Line4_x3E__57_" class="st4" x1="87" y1="3" x2="87" y2="1"/>
	<line id="_x3C_Line3_x3E__57_" class="st4" x1="84" y1="3" x2="84" y2="1"/>
	<line id="_x3C_Line2_x3E__57_" class="st4" x1="81" y1="3" x2="81" y2="1"/>
	<line id="_x3C_Line1_x3E__57_" class="st4" x1="78" y1="3" x2="78" y2="1"/>
	<line id="_x3C_Line4_x3E__56_" class="st4" x1="72" y1="3" x2="72" y2="1"/>
	<line id="_x3C_Line3_x3E__56_" class="st4" x1="69" y1="3" x2="69" y2="1"/>
	<line id="_x3C_Line2_x3E__56_" class="st4" x1="66" y1="3" x2="66" y2="1"/>
	<line id="_x3C_Line1_x3E__56_" class="st4" x1="63" y1="3" x2="63" y2="1"/>
	<line id="_x3C_Line4_x3E__55_" class="st4" x1="117" y1="3" x2="117" y2="1"/>
	<line id="_x3C_Line3_x3E__55_" class="st4" x1="114" y1="3" x2="114" y2="1"/>
	<line id="_x3C_Line2_x3E__55_" class="st4" x1="111" y1="3" x2="111" y2="1"/>
	<line id="_x3C_Line1_x3E__55_" class="st4" x1="108" y1="3" x2="108" y2="1"/>
	<line id="_x3C_Line4_x3E__54_" class="st4" x1="102" y1="3" x2="102" y2="1"/>
	<line id="_x3C_Line3_x3E__54_" class="st4" x1="99" y1="3" x2="99" y2="1"/>
	<line id="_x3C_Line2_x3E__54_" class="st4" x1="96" y1="3" x2="96" y2="1"/>
	<line id="_x3C_Line1_x3E__54_" class="st4" x1="93" y1="3" x2="93" y2="1"/>
	<line id="_x3C_Line4_x3E__53_" class="st4" x1="147" y1="3" x2="147" y2="1"/>
	<line id="_x3C_Line3_x3E__53_" class="st4" x1="144" y1="3" x2="144" y2="1"/>
	<line id="_x3C_Line2_x3E__53_" class="st4" x1="141" y1="3" x2="141" y2="1"/>
	<line id="_x3C_Line1_x3E__53_" class="st4" x1="138" y1="3" x2="138" y2="1"/>
	<line id="_x3C_Line4_x3E__52_" class="st4" x1="132" y1="3" x2="132" y2="1"/>
	<line id="_x3C_Line3_x3E__52_" class="st4" x1="129" y1="3" x2="129" y2="1"/>
	<line id="_x3C_Line2_x3E__52_" class="st4" x1="126" y1="3" x2="126" y2="1"/>
	<line id="_x3C_Line1_x3E__52_" class="st4" x1="123" y1="3" x2="123" y2="1"/>
	<line id="_x3C_Line4_x3E__51_" class="st4" x1="177" y1="3" x2="177" y2="1"/>
	<line id="_x3C_Line3_x3E__51_" class="st4" x1="174" y1="3" x2="174" y2="1"/>
	<line id="_x3C_Line2_x3E__51_" class="st4" x1="171" y1="3" x2="171" y2="1"/>
	<line id="_x3C_Line1_x3E__51_" class="st4" x1="168" y1="3" x2="168" y2="1"/>
	<line id="_x3C_Line4_x3E__50_" class="st4" x1="162" y1="3" x2="162" y2="1"/>
	<line id="_x3C_Line3_x3E__50_" class="st4" x1="159" y1="3" x2="159" y2="1"/>
	<line id="_x3C_Line2_x3E__50_" class="st4" x1="156" y1="3" x2="156" y2="1"/>
	<line id="_x3C_Line1_x3E__50_" class="st4" x1="153" y1="3" x2="153" y2="1"/>
	<line id="_x3C_Line4_x3E__49_" class="st4" x1="207" y1="3" x2="207" y2="1"/>
	<line id="_x3C_Line3_x3E__49_" class="st4" x1="204" y1="3" x2="204" y2="1"/>
	<line id="_x3C_Line2_x3E__49_" class="st4" x1="201" y1="3" x2="201" y2="1"/>
	<line id="_x3C_Line1_x3E__49_" class="st4" x1="198" y1="3" x2="198" y2="1"/>
	<line id="_x3C_Line4_x3E__48_" class="st4" x1="192" y1="3" x2="192" y2="1"/>
	<line id="_x3C_Line3_x3E__48_" class="st4" x1="189" y1="3" x2="189" y2="1"/>
	<line id="_x3C_Line2_x3E__48_" class="st4" x1="186" y1="3" x2="186" y2="1"/>
	<line id="_x3C_Line1_x3E__48_" class="st4" x1="183" y1="3" x2="183" y2="1"/>
	<line id="_x3C_Line4_x3E__47_" class="st4" x1="237" y1="3" x2="237" y2="1"/>
	<line id="_x3C_Line3_x3E__47_" class="st4" x1="234" y1="3" x2="234" y2="1"/>
	<line id="_x3C_Line2_x3E__47_" class="st4" x1="231" y1="3" x2="231" y2="1"/>
	<line id="_x3C_Line1_x3E__47_" class="st4" x1="228" y1="3" x2="228" y2="1"/>
	<line id="_x3C_Line4_x3E__46_" class="st4" x1="222" y1="3" x2="222" y2="1"/>
	<line id="_x3C_Line3_x3E__46_" class="st4" x1="219" y1="3" x2="219" y2="1"/>
	<line id="_x3C_Line2_x3E__46_" class="st4" x1="216" y1="3" x2="216" y2="1"/>
	<line id="_x3C_Line1_x3E__46_" class="st4" x1="213" y1="3" x2="213" y2="1"/>
	<line id="_x3C_Line4_x3E__45_" class="st4" x1="267" y1="3" x2="267" y2="1"/>
	<line id="_x3C_Line3_x3E__45_" class="st4" x1="264" y1="3" x2="264" y2="1"/>
	<line id="_x3C_Line2_x3E__45_" class="st4" x1="261" y1="3" x2="261" y2="1"/>
	<line id="_x3C_Line1_x3E__45_" class="st4" x1="258" y1="3" x2="258" y2="1"/>
	<line id="_x3C_Line4_x3E__44_" class="st4" x1="252" y1="3" x2="252" y2="1"/>
	<line id="_x3C_Line3_x3E__44_" class="st4" x1="249" y1="3" x2="249" y2="1"/>
	<line id="_x3C_Line2_x3E__44_" class="st4" x1="246" y1="3" x2="246" y2="1"/>
	<line id="_x3C_Line1_x3E__44_" class="st4" x1="243" y1="3" x2="243" y2="1"/>
	<line id="_x3C_Line4_x3E__43_" class="st4" x1="297" y1="3" x2="297" y2="1"/>
	<line id="_x3C_Line3_x3E__43_" class="st4" x1="294" y1="3" x2="294" y2="1"/>
	<line id="_x3C_Line2_x3E__43_" class="st4" x1="291" y1="3" x2="291" y2="1"/>
	<line id="_x3C_Line1_x3E__43_" class="st4" x1="288" y1="3" x2="288" y2="1"/>
	<line id="_x3C_Line4_x3E__42_" class="st4" x1="282" y1="3" x2="282" y2="1"/>
	<line id="_x3C_Line3_x3E__42_" class="st4" x1="279" y1="3" x2="279" y2="1"/>
	<line id="_x3C_Line2_x3E__42_" class="st4" x1="276" y1="3" x2="276" y2="1"/>
	<line id="_x3C_Line1_x3E__42_" class="st4" x1="273" y1="3" x2="273" y2="1"/>
	<line id="_x3C_Line4_x3E__41_" class="st4" x1="327" y1="3" x2="327" y2="1"/>
	<line id="_x3C_Line3_x3E__41_" class="st4" x1="324" y1="3" x2="324" y2="1"/>
	<line id="_x3C_Line2_x3E__41_" class="st4" x1="321" y1="3" x2="321" y2="1"/>
	<line id="_x3C_Line1_x3E__41_" class="st4" x1="318" y1="3" x2="318" y2="1"/>
	<line id="_x3C_Line4_x3E__40_" class="st4" x1="312" y1="3" x2="312" y2="1"/>
	<line id="_x3C_Line3_x3E__40_" class="st4" x1="309" y1="3" x2="309" y2="1"/>
	<line id="_x3C_Line2_x3E__40_" class="st4" x1="306" y1="3" x2="306" y2="1"/>
	<line id="_x3C_Line1_x3E__40_" class="st4" x1="303" y1="3" x2="303" y2="1"/>
</g>
<g id="BottomNums">
	<g>
		<path d="M56.4,138.3v-0.7h0.7v-3.5l-0.7,0.7v-0.7l0.7-0.7h0.7v4.2h0.7v0.7H56.4z"/>
		<path d="M62.7,138.3c-0.2,0-0.4-0.1-0.5-0.2c-0.1-0.1-0.2-0.3-0.2-0.5v-3.5c0-0.2,0.1-0.4,0.2-0.5c0.1-0.1,0.3-0.2,0.5-0.2h1.1
			c0.2,0,0.4,0.1,0.5,0.2c0.1,0.1,0.2,0.3,0.2,0.5v3.5c0,0.2-0.1,0.4-0.2,0.5c-0.1,0.1-0.3,0.2-0.5,0.2H62.7z M63.8,137.6v-3.5h-1.1
			v3.5H63.8z"/>
	</g>
	<g>
		<path d="M85.6,138.3v-1.1l2.1-2.1v-1.1h-1.4v0.7h-0.7v-0.7c0-0.2,0.1-0.4,0.2-0.5c0.1-0.1,0.3-0.2,0.5-0.2h1.4
			c0.2,0,0.4,0.1,0.5,0.2c0.1,0.1,0.2,0.3,0.2,0.5v1.4l-2.1,2.1h2.1v0.7H85.6z"/>
		<path d="M92.6,138.3c-0.2,0-0.4-0.1-0.5-0.2c-0.1-0.1-0.2-0.3-0.2-0.5v-3.5c0-0.2,0.1-0.4,0.2-0.5c0.1-0.1,0.3-0.2,0.5-0.2h1.1
			c0.2,0,0.4,0.1,0.5,0.2c0.1,0.1,0.2,0.3,0.2,0.5v3.5c0,0.2-0.1,0.4-0.2,0.5c-0.1,0.1-0.3,0.2-0.5,0.2H92.6z M93.7,137.6v-3.5h-1.1
			v3.5H93.7z"/>
	</g>
	<g>
		<path d="M116.4,138.3c-0.2,0-0.4-0.1-0.5-0.2c-0.1-0.1-0.2-0.3-0.2-0.5v-0.7h0.7v0.7h1.4v-1.4h-1.1v-0.7h1.1v-1.4h-1.4v0.7h-0.7
			v-0.7c0-0.2,0.1-0.4,0.2-0.5c0.1-0.1,0.3-0.2,0.5-0.2h1.4c0.2,0,0.4,0.1,0.5,0.2c0.1,0.1,0.2,0.3,0.2,0.5v1.4c0,0.1,0,0.2-0.1,0.3
			c-0.1,0.1-0.2,0.1-0.2,0.1c0.1,0,0.2,0,0.2,0.1c0.1,0.1,0.1,0.2,0.1,0.2v1.4c0,0.2-0.1,0.4-0.2,0.5c-0.1,0.1-0.3,0.2-0.5,0.2
			H116.4z"/>
		<path d="M122.8,138.3c-0.2,0-0.4-0.1-0.5-0.2c-0.1-0.1-0.2-0.3-0.2-0.5v-3.5c0-0.2,0.1-0.4,0.2-0.5c0.1-0.1,0.3-0.2,0.5-0.2h1.1
			c0.2,0,0.4,0.1,0.5,0.2c0.1,0.1,0.2,0.3,0.2,0.5v3.5c0,0.2-0.1,0.4-0.2,0.5c-0.1,0.1-0.3,0.2-0.5,0.2H122.8z M123.9,137.6v-3.5
			h-1.1v3.5H123.9z"/>
	</g>
	<g>
		<path d="M146.8,138.3v-0.7h-1.8v-0.7l1.8-3.5h0.7v3.5h0.4v0.7h-0.4v0.7H146.8z M146.8,136.9v-2.1l-1.1,2.1H146.8z"/>
		<path d="M152.1,138.3c-0.2,0-0.4-0.1-0.5-0.2c-0.1-0.1-0.2-0.3-0.2-0.5v-3.5c0-0.2,0.1-0.4,0.2-0.5c0.1-0.1,0.3-0.2,0.5-0.2h1.1
			c0.2,0,0.4,0.1,0.5,0.2c0.1,0.1,0.2,0.3,0.2,0.5v3.5c0,0.2-0.1,0.4-0.2,0.5c-0.1,0.1-0.3,0.2-0.5,0.2H152.1z M153.2,137.6v-3.5
			h-1.1v3.5H153.2z"/>
	</g>
	<g>
		<path d="M176.1,138.3c-0.2,0-0.4-0.1-0.5-0.2c-0.1-0.1-0.2-0.3-0.2-0.5v-0.7h0.7v0.7h1.4v-1.4h-1.8l-0.4-0.4v-2.5h2.8v1.1h-0.7
			v-0.4h-1.4v1.4h1.4c0.2,0,0.4,0.1,0.5,0.2c0.1,0.1,0.2,0.3,0.2,0.5v1.4c0,0.2-0.1,0.4-0.2,0.5c-0.1,0.1-0.3,0.2-0.5,0.2H176.1z"/>
		<path d="M182.5,138.3c-0.2,0-0.4-0.1-0.5-0.2c-0.1-0.1-0.2-0.3-0.2-0.5v-3.5c0-0.2,0.1-0.4,0.2-0.5c0.1-0.1,0.3-0.2,0.5-0.2h1.1
			c0.2,0,0.4,0.1,0.5,0.2c0.1,0.1,0.2,0.3,0.2,0.5v3.5c0,0.2-0.1,0.4-0.2,0.5c-0.1,0.1-0.3,0.2-0.5,0.2H182.5z M183.5,137.6v-3.5
			h-1.1v3.5H183.5z"/>
	</g>
	<g>
		<path d="M207.2,138.3v-0.7h-1.8v-0.7l1.8-3.5h0.7v3.5h0.4v0.7h-0.4v0.7H207.2z M207.2,136.9v-2.1l-1.1,2.1H207.2z"/>
		<path d="M212.5,138.3c-0.2,0-0.4-0.1-0.5-0.2c-0.1-0.1-0.2-0.3-0.2-0.5v-3.5c0-0.2,0.1-0.4,0.2-0.5c0.1-0.1,0.3-0.2,0.5-0.2h1.1
			c0.2,0,0.4,0.1,0.5,0.2c0.1,0.1,0.2,0.3,0.2,0.5v3.5c0,0.2-0.1,0.4-0.2,0.5c-0.1,0.1-0.3,0.2-0.5,0.2H212.5z M213.5,137.6v-3.5
			h-1.1v3.5H213.5z"/>
	</g>
	<g>
		<path d="M235.8,138.3c-0.2,0-0.4-0.1-0.5-0.2c-0.1-0.1-0.2-0.3-0.2-0.5v-0.7h0.7v0.7h1.4v-1.4h-1.1v-0.7h1.1v-1.4h-1.4v0.7h-0.7
			v-0.7c0-0.2,0.1-0.4,0.2-0.5c0.1-0.1,0.3-0.2,0.5-0.2h1.4c0.2,0,0.4,0.1,0.5,0.2c0.1,0.1,0.2,0.3,0.2,0.5v1.4c0,0.1,0,0.2-0.1,0.3
			c-0.1,0.1-0.2,0.1-0.2,0.1c0.1,0,0.2,0,0.2,0.1c0.1,0.1,0.1,0.2,0.1,0.2v1.4c0,0.2-0.1,0.4-0.2,0.5c-0.1,0.1-0.3,0.2-0.5,0.2
			H235.8z"/>
		<path d="M242.1,138.3c-0.2,0-0.4-0.1-0.5-0.2c-0.1-0.1-0.2-0.3-0.2-0.5v-3.5c0-0.2,0.1-0.4,0.2-0.5c0.1-0.1,0.3-0.2,0.5-0.2h1.1
			c0.2,0,0.4,0.1,0.5,0.2c0.1,0.1,0.2,0.3,0.2,0.5v3.5c0,0.2-0.1,0.4-0.2,0.5c-0.1,0.1-0.3,0.2-0.5,0.2H242.1z M243.2,137.6v-3.5
			h-1.1v3.5H243.2z"/>
	</g>
	<g>
		<path d="M265.1,138.3v-1.1l2.1-2.1v-1.1h-1.4v0.7h-0.7v-0.7c0-0.2,0.1-0.4,0.2-0.5c0.1-0.1,0.3-0.2,0.5-0.2h1.4
			c0.2,0,0.4,0.1,0.5,0.2c0.1,0.1,0.2,0.3,0.2,0.5v1.4l-2.1,2.1h2.1v0.7H265.1z"/>
		<path d="M272.1,138.3c-0.2,0-0.4-0.1-0.5-0.2c-0.1-0.1-0.2-0.3-0.2-0.5v-3.5c0-0.2,0.1-0.4,0.2-0.5c0.1-0.1,0.3-0.2,0.5-0.2h1.1
			c0.2,0,0.4,0.1,0.5,0.2c0.1,0.1,0.2,0.3,0.2,0.5v3.5c0,0.2-0.1,0.4-0.2,0.5c-0.1,0.1-0.3,0.2-0.5,0.2H272.1z M273.2,137.6v-3.5
			h-1.1v3.5H273.2z"/>
	</g>
	<g>
		<path d="M296.4,138.3v-0.7h0.7v-3.5l-0.7,0.7v-0.7l0.7-0.7h0.7v4.2h0.7v0.7H296.4z"/>
		<path d="M302.7,138.3c-0.2,0-0.4-0.1-0.5-0.2c-0.1-0.1-0.2-0.3-0.2-0.5v-3.5c0-0.2,0.1-0.4,0.2-0.5c0.1-0.1,0.3-0.2,0.5-0.2h1.1
			c0.2,0,0.4,0.1,0.5,0.2c0.1,0.1,0.2,0.3,0.2,0.5v3.5c0,0.2-0.1,0.4-0.2,0.5c-0.1,0.1-0.3,0.2-0.5,0.2H302.7z M303.8,137.6v-3.5
			h-1.1v3.5H303.8z"/>
	</g>
</g>
<g id="TopNums">
	<g>
		<path d="M303.3,21.7v0.7h-0.7v3.5l0.7-0.7v0.7l-0.7,0.7h-0.7v-4.2h-0.7v-0.7H303.3z"/>
		<path d="M297,21.7c0.2,0,0.4,0.1,0.5,0.2s0.2,0.3,0.2,0.5v3.5c0,0.2-0.1,0.4-0.2,0.5c-0.1,0.1-0.3,0.2-0.5,0.2h-1.1
			c-0.2,0-0.4-0.1-0.5-0.2c-0.1-0.1-0.2-0.3-0.2-0.5v-3.5c0-0.2,0.1-0.4,0.2-0.5c0.1-0.1,0.3-0.2,0.5-0.2H297z M295.9,22.4v3.5h1.1
			v-3.5H295.9z"/>
	</g>
	<g>
		<path d="M274.1,21.7v1.1l-2.1,2.1v1.1h1.4v-0.7h0.7v0.7c0,0.2-0.1,0.4-0.2,0.5c-0.1,0.1-0.3,0.2-0.5,0.2H272
			c-0.2,0-0.4-0.1-0.5-0.2c-0.1-0.1-0.2-0.3-0.2-0.5v-1.4l2.1-2.1h-2.1v-0.7H274.1z"/>
		<path d="M267,21.7c0.2,0,0.4,0.1,0.5,0.2s0.2,0.3,0.2,0.5v3.5c0,0.2-0.1,0.4-0.2,0.5c-0.1,0.1-0.3,0.2-0.5,0.2H266
			c-0.2,0-0.4-0.1-0.5-0.2c-0.1-0.1-0.2-0.3-0.2-0.5v-3.5c0-0.2,0.1-0.4,0.2-0.5c0.1-0.1,0.3-0.2,0.5-0.2H267z M266,22.4v3.5h1.1
			v-3.5H266z"/>
	</g>
	<g>
		<path d="M243.2,21.7c0.2,0,0.4,0.1,0.5,0.2c0.1,0.1,0.2,0.3,0.2,0.5v0.7h-0.7v-0.7h-1.4v1.4h1.1v0.7h-1.1v1.4h1.4v-0.7h0.7v0.7
			c0,0.2-0.1,0.4-0.2,0.5c-0.1,0.1-0.3,0.2-0.5,0.2h-1.4c-0.2,0-0.4-0.1-0.5-0.2c-0.1-0.1-0.2-0.3-0.2-0.5v-1.4c0-0.1,0-0.2,0.1-0.3
			c0.1-0.1,0.2-0.1,0.2-0.1c-0.1,0-0.2,0-0.2-0.1c-0.1-0.1-0.1-0.2-0.1-0.2v-1.4c0-0.2,0.1-0.4,0.2-0.5c0.1-0.1,0.3-0.2,0.5-0.2
			H243.2z"/>
		<path d="M236.9,21.7c0.2,0,0.4,0.1,0.5,0.2c0.1,0.1,0.2,0.3,0.2,0.5v3.5c0,0.2-0.1,0.4-0.2,0.5c-0.1,0.1-0.3,0.2-0.5,0.2h-1.1
			c-0.2,0-0.4-0.1-0.5-0.2c-0.1-0.1-0.2-0.3-0.2-0.5v-3.5c0-0.2,0.1-0.4,0.2-0.5c0.1-0.1,0.3-0.2,0.5-0.2H236.9z M235.8,22.4v3.5
			h1.1v-3.5H235.8z"/>
	</g>
	<g>
		<path d="M212.8,21.7v0.7h1.8v0.7l-1.8,3.5h-0.7v-3.5h-0.4v-0.7h0.4v-0.7H212.8z M212.8,23.1v2.1l1.1-2.1H212.8z"/>
		<path d="M207.5,21.7c0.2,0,0.4,0.1,0.5,0.2s0.2,0.3,0.2,0.5v3.5c0,0.2-0.1,0.4-0.2,0.5c-0.1,0.1-0.3,0.2-0.5,0.2h-1.1
			c-0.2,0-0.4-0.1-0.5-0.2c-0.1-0.1-0.2-0.3-0.2-0.5v-3.5c0-0.2,0.1-0.4,0.2-0.5c0.1-0.1,0.3-0.2,0.5-0.2H207.5z M206.5,22.4v3.5
			h1.1v-3.5H206.5z"/>
	</g>
	<g>
		<path d="M183.6,21.7c0.2,0,0.4,0.1,0.5,0.2c0.1,0.1,0.2,0.3,0.2,0.5v0.7h-0.7v-0.7h-1.4v1.4h1.8l0.4,0.4v2.5h-2.8v-1.1h0.7v0.4
			h1.4v-1.4h-1.4c-0.2,0-0.4-0.1-0.5-0.2c-0.1-0.1-0.2-0.3-0.2-0.5v-1.4c0-0.2,0.1-0.4,0.2-0.5c0.1-0.1,0.3-0.2,0.5-0.2H183.6z"/>
		<path d="M177.2,21.7c0.2,0,0.4,0.1,0.5,0.2c0.1,0.1,0.2,0.3,0.2,0.5v3.5c0,0.2-0.1,0.4-0.2,0.5c-0.1,0.1-0.3,0.2-0.5,0.2h-1.1
			c-0.2,0-0.4-0.1-0.5-0.2c-0.1-0.1-0.2-0.3-0.2-0.5v-3.5c0-0.2,0.1-0.4,0.2-0.5c0.1-0.1,0.3-0.2,0.5-0.2H177.2z M176.2,22.4v3.5
			h1.1v-3.5H176.2z"/>
	</g>
	<g>
		<path d="M152.5,21.7v0.7h1.8v0.7l-1.8,3.5h-0.7v-3.5h-0.4v-0.7h0.4v-0.7H152.5z M152.5,23.1v2.1l1.1-2.1H152.5z"/>
		<path d="M147.2,21.7c0.2,0,0.4,0.1,0.5,0.2c0.1,0.1,0.2,0.3,0.2,0.5v3.5c0,0.2-0.1,0.4-0.2,0.5c-0.1,0.1-0.3,0.2-0.5,0.2h-1.1
			c-0.2,0-0.4-0.1-0.5-0.2c-0.1-0.1-0.2-0.3-0.2-0.5v-3.5c0-0.2,0.1-0.4,0.2-0.5c0.1-0.1,0.3-0.2,0.5-0.2H147.2z M146.2,22.4v3.5
			h1.1v-3.5H146.2z"/>
	</g>
	<g>
		<path d="M123.9,21.7c0.2,0,0.4,0.1,0.5,0.2c0.1,0.1,0.2,0.3,0.2,0.5v0.7h-0.7v-0.7h-1.4v1.4h1.1v0.7h-1.1v1.4h1.4v-0.7h0.7v0.7
			c0,0.2-0.1,0.4-0.2,0.5c-0.1,0.1-0.3,0.2-0.5,0.2h-1.4c-0.2,0-0.4-0.1-0.5-0.2c-0.1-0.1-0.2-0.3-0.2-0.5v-1.4c0-0.1,0-0.2,0.1-0.3
			c0.1-0.1,0.2-0.1,0.2-0.1c-0.1,0-0.2,0-0.2-0.1c-0.1-0.1-0.1-0.2-0.1-0.2v-1.4c0-0.2,0.1-0.4,0.2-0.5c0.1-0.1,0.3-0.2,0.5-0.2
			H123.9z"/>
		<path d="M117.5,21.7c0.2,0,0.4,0.1,0.5,0.2c0.1,0.1,0.2,0.3,0.2,0.5v3.5c0,0.2-0.1,0.4-0.2,0.5c-0.1,0.1-0.3,0.2-0.5,0.2h-1.1
			c-0.2,0-0.4-0.1-0.5-0.2c-0.1-0.1-0.2-0.3-0.2-0.5v-3.5c0-0.2,0.1-0.4,0.2-0.5c0.1-0.1,0.3-0.2,0.5-0.2H117.5z M116.5,22.4v3.5
			h1.1v-3.5H116.5z"/>
	</g>
	<g>
		<path d="M94.6,21.7v1.1l-2.1,2.1v1.1h1.4v-0.7h0.7v0.7c0,0.2-0.1,0.4-0.2,0.5c-0.1,0.1-0.3,0.2-0.5,0.2h-1.4
			c-0.2,0-0.4-0.1-0.5-0.2c-0.1-0.1-0.2-0.3-0.2-0.5v-1.4l2.1-2.1h-2.1v-0.7H94.6z"/>
		<path d="M87.5,21.7c0.2,0,0.4,0.1,0.5,0.2c0.1,0.1,0.2,0.3,0.2,0.5v3.5c0,0.2-0.1,0.4-0.2,0.5c-0.1,0.1-0.3,0.2-0.5,0.2h-1.1
			c-0.2,0-0.4-0.1-0.5-0.2c-0.1-0.1-0.2-0.3-0.2-0.5v-3.5c0-0.2,0.1-0.4,0.2-0.5c0.1-0.1,0.3-0.2,0.5-0.2H87.5z M86.5,22.4v3.5h1.1
			v-3.5H86.5z"/>
	</g>
	<g>
		<path d="M63.3,21.7v0.7h-0.7v3.5l0.7-0.7v0.7l-0.7,0.7h-0.7v-4.2h-0.7v-0.7H63.3z"/>
		<path d="M56.9,21.7c0.2,0,0.4,0.1,0.5,0.2c0.1,0.1,0.2,0.3,0.2,0.5v3.5c0,0.2-0.1,0.4-0.2,0.5c-0.1,0.1-0.3,0.2-0.5,0.2h-1.1
			c-0.2,0-0.4-0.1-0.5-0.2c-0.1-0.1-0.2-0.3-0.2-0.5v-3.5c0-0.2,0.1-0.4,0.2-0.5c0.1-0.1,0.3-0.2,0.5-0.2H56.9z M55.9,22.4v3.5h1.1
			v-3.5H55.9z"/>
	</g>
</g>
</svg>
